<?xml version="1.0" standalone="no"?>
<!DOCTYPE svg PUBLIC "-//W3C//DTD SVG 20010904//EN"
 "http://www.w3.org/TR/2001/REC-SVG-20010904/DTD/svg10.dtd">
<svg version="1.0" xmlns="http://www.w3.org/2000/svg"
 width="96.000000pt" height="96.000000pt" viewBox="0 0 96.000000 96.000000"
 preserveAspectRatio="xMidYMid meet">
<metadata>
Created by potrace 1.11, written by Peter Selinger 2001-2013
</metadata>
<g transform="translate(0.000000,96.000000) scale(0.100000,-0.100000)"
fill="#000000" stroke="none">
<path d="M330 725 l0 -115 -30 0 c-19 0 -40 -9 -55 -25 -23 -22 -25 -31 -25
-120 0 -88 1 -95 16 -81 21 22 61 20 76 -3 12 -20 12 -20 26 0 17 25 57 24 75
-1 13 -19 13 -19 30 0 9 11 26 20 37 20 11 0 28 -9 37 -20 17 -19 17 -19 30 0
18 25 58 26 75 1 14 -20 14 -20 26 0 15 23 55 25 76 3 15 -14 16 -7 16 81 0
89 -2 98 -25 120 -15 16 -36 25 -55 25 l-30 0 0 115 c0 108 -1 115 -20 115
-19 0 -20 -7 -20 -115 l0 -115 -45 0 -45 0 0 115 c0 108 -1 115 -20 115 -19 0
-20 -7 -20 -115 l0 -115 -45 0 -45 0 0 115 c0 108 -1 115 -20 115 -19 0 -20
-7 -20 -115z"/>
<path d="M93 326 c-23 -20 -26 -28 -17 -43 17 -28 74 -63 104 -63 27 0 105 44
129 73 12 16 17 14 50 -16 77 -70 132 -72 224 -8 50 35 57 38 69 24 23 -29
101 -73 128 -73 30 0 87 35 104 63 9 15 6 23 -17 43 l-28 24 -359 0 -359 0
-28 -24z"/>
<path d="M305 220 c-13 -21 -86 -50 -127 -50 -25 0 -56 8 -76 20 l-32 20 0
-60 0 -60 410 0 410 0 0 60 0 60 -32 -20 c-57 -34 -143 -22 -200 28 -16 14
-24 12 -83 -18 -55 -28 -72 -32 -119 -28 -39 3 -65 12 -90 31 -37 29 -51 33
-61 17z"/>
</g>
</svg>
